<?xml version="1.0" standalone="no"?>
<!DOCTYPE svg PUBLIC "-//W3C//DTD SVG 20010904//EN"
 "http://www.w3.org/TR/2001/REC-SVG-20010904/DTD/svg10.dtd">
<svg version="1.0" xmlns="http://www.w3.org/2000/svg"
 width="579.000000pt" height="579.000000pt" viewBox="0 0 579.000000 579.000000"
 preserveAspectRatio="xMidYMid meet">
<metadata>
Created by potrace 1.14, written by Peter Selinger 2001-2017
</metadata>
<g transform="translate(0.000000,579.000000) scale(0.100000,-0.100000)"
fill="#000000" stroke="none">
<path d="M2709 4776 c-2 -2 -31 -6 -64 -9 -389 -39 -789 -225 -1058 -490 -170
-168 -269 -315 -369 -547 -37 -84 -78 -243 -93 -360 -3 -25 -8 -61 -10 -80 -3
-19 -5 -84 -5 -145 -2 -303 65 -542 213 -765 43 -64 219 -252 282 -300 11 -9
79 -60 150 -113 197 -149 239 -182 315 -254 167 -156 198 -366 88 -590 -53
-108 -50 -112 84 -102 203 15 376 109 506 275 30 40 35 42 99 49 77 8 122 13
173 20 19 2 58 7 85 11 28 3 59 8 70 10 11 2 40 7 65 10 25 3 52 7 60 9 8 2
30 7 47 10 66 11 170 37 253 62 47 15 90 27 96 29 33 6 168 73 226 110 125 83
172 159 173 274 0 62 -5 84 -27 128 l-27 53 26 22 c291 241 496 533 568 807
51 193 54 394 10 605 -13 64 -76 239 -115 318 -38 79 -132 230 -182 290 -137
168 -363 342 -568 440 -257 121 -426 172 -710 212 -48 7 -355 16 -361 11z"/>
</g>
</svg>
